<?xml version="1.0" encoding="UTF-8" standalone="no"?>
<!DOCTYPE svg PUBLIC "-//W3C//DTD SVG 1.1//EN" "http://www.w3.org/Graphics/SVG/1.1/DTD/svg11.dtd">
<svg width="100%" height="100%" viewBox="0 0 219 219" version="1.1" xmlns="http://www.w3.org/2000/svg" xmlns:xlink="http://www.w3.org/1999/xlink" xml:space="preserve" xmlns:serif="http://www.serif.com/" style="fill-rule:evenodd;clip-rule:evenodd;stroke-linejoin:round;stroke-miterlimit:2;">
    <g transform="matrix(1,0,0,1,-345.882,-245.882)">
        <path d="Mnan,nanCnan,nan nan,nan nan,nanCnan,nan nan,nan nan,nanCnan,nan nan,nan nan,nanCnan,nan nan,nan nan,nanCnan,nan nan,nan nan,nanCnan,nan nan,nan nan,nanCnan,nan nan,nan nan,nanCnan,nan nan,nan nan,nanZ" style="fill:rgb(243,239,220);"/>
        <g transform="matrix(1,0,0,1,345.882,240)">
            <g>
                <g>
                    <rect x="0" y="5.882" width="108.235" height="108.235" style="fill:rgb(218,103,98);fill-opacity:0;"/>
                    <g transform="matrix(1,0,0,1,-5,-5)">
                        <g>
                            <g>
                                <path d="M129.271,17.647L129.271,43.593L106.026,45.864L106.026,17.647L129.271,17.647ZM150.791,48.892L150.791,79.449L84.567,86.056L84.567,55.499L150.791,48.892ZM173.654,84.68L173.654,115.167L61.64,126.315L61.64,95.692L173.654,84.68ZM198.049,120.261L198.049,160.522L37.311,176.558L37.311,136.296L198.049,120.261ZM223.529,165.475L223.529,229.412L11.765,229.412L11.765,186.398L223.529,165.475Z" style="fill:rgb(218,103,98);"/>
                            </g>
                        </g>
                    </g>
                </g>
            </g>
        </g>
    </g>
</svg>
